<?xml version="1.0" encoding="UTF-8" ?>
<!DOCTYPE svg PUBLIC "-//W3C//DTD SVG 1.1//EN" "http://www.w3.org/Graphics/SVG/1.1/DTD/svg11.dtd">
<svg width="1024pt" height="1024pt" viewBox="0 0 1024 1024" version="1.1" xmlns="http://www.w3.org/2000/svg">
<g id="#0f0d0fff">
<path fill="#0f0d0f" opacity="1.00" d=" M 638.25 189.37 C 638.84 189.73 638.84 189.73 638.25 189.37 Z" />
</g>
<g id="#fdfdfdff">
<path fill="#fdfdfd" opacity="1.00" d=" M 463.40 125.15 C 467.23 124.49 471.09 125.28 474.94 125.17 C 503.79 125.20 532.64 125.01 561.49 125.20 C 564.30 131.26 565.92 137.75 567.81 144.14 C 568.79 147.57 569.93 151.01 569.99 154.62 C 562.64 155.33 555.36 153.70 548.02 154.17 C 540.64 154.17 533.27 154.24 525.90 154.39 C 522.96 147.99 516.04 143.59 508.93 144.35 C 500.50 144.64 493.53 152.76 494.08 161.08 C 493.86 169.14 501.05 176.23 508.93 176.75 C 516.37 177.28 523.68 172.46 526.09 165.38 C 535.74 164.98 545.41 165.57 555.06 165.24 C 560.20 164.31 565.44 164.98 570.62 164.55 L 570.54 165.57 C 571.06 165.46 572.09 165.24 572.61 165.13 C 573.86 170.73 574.87 176.38 575.74 182.05 C 575.53 181.65 575.12 180.86 574.91 180.46 C 559.38 184.27 543.94 190.68 532.19 201.79 C 530.38 201.99 528.58 202.33 526.79 202.60 C 524.41 199.26 522.36 195.33 518.56 193.39 C 512.59 189.91 504.38 190.52 499.27 195.27 C 494.84 199.36 492.71 206.01 494.50 211.85 C 496.46 220.02 506.02 225.25 514.01 222.82 C 519.13 221.67 523.39 218.02 525.77 213.40 C 535.84 213.26 545.92 213.34 555.99 213.40 C 547.99 226.16 534.46 233.86 521.16 240.04 C 514.79 242.92 508.01 244.69 501.67 247.63 C 488.78 248.10 475.86 248.15 462.95 247.99 C 456.29 248.04 449.67 244.16 446.84 238.06 C 443.32 231.24 444.86 223.35 444.97 216.02 C 446.97 185.11 452.31 154.17 463.40 125.15 Z" />
<path fill="#fdfdfd" opacity="1.00" d=" M 609.40 174.62 C 606.77 166.13 602.97 158.07 599.16 150.08 C 602.31 152.32 605.81 153.99 609.20 155.84 C 617.56 160.65 625.39 166.33 633.23 171.93 C 647.16 183.19 660.25 195.64 671.11 209.93 C 681.26 223.32 690.49 237.53 697.16 253.00 C 699.73 258.95 702.74 264.77 704.41 271.07 C 701.15 270.77 698.19 269.36 695.23 268.11 C 690.87 256.44 685.19 245.25 678.05 235.03 C 670.02 221.99 659.48 210.84 649.29 199.51 C 646.21 196.30 643.36 192.77 639.48 190.48 C 641.83 193.81 645.08 196.34 647.65 199.49 C 656.51 210.04 664.96 220.96 672.57 232.46 C 679.14 243.32 684.86 254.69 689.51 266.51 C 687.42 265.88 684.60 266.46 682.94 265.03 C 676.82 252.24 670.28 239.54 662.11 227.90 C 652.72 213.98 641.39 201.44 629.05 190.08 C 622.90 184.43 616.38 179.19 609.40 174.62 M 633.41 185.25 C 633.20 186.71 635.29 188.30 636.70 187.93 C 637.21 186.37 634.80 184.72 633.41 185.25 M 638.25 189.37 C 638.84 189.73 638.84 189.73 638.25 189.37 Z" />
<path fill="#fdfdfd" opacity="1.00" d=" M 361.79 199.83 C 379.64 179.25 401.72 162.39 426.19 150.43 C 422.79 157.19 419.48 164.02 417.12 171.23 C 416.41 172.95 416.09 175.13 414.27 176.06 C 400.12 184.88 388.46 197.01 377.50 209.44 C 363.07 226.26 350.94 245.15 342.24 265.56 C 334.36 266.35 327.01 269.38 319.54 271.77 C 322.05 264.77 324.80 257.87 328.24 251.28 C 336.78 232.56 348.67 215.59 361.79 199.83 Z" />
<path fill="#fdfdfd" opacity="1.00" d=" M 393.74 216.20 C 390.51 203.93 403.47 189.81 416.07 194.56 C 420.50 197.12 423.81 201.69 423.86 206.94 C 424.62 217.75 414.15 228.85 403.05 226.34 C 398.04 225.49 394.57 221.02 393.74 216.20 Z" />
<path fill="#fdfdfd" opacity="1.00" d=" M 405.09 272.50 C 449.78 266.37 495.00 266.18 540.03 266.80 C 556.31 267.24 572.59 267.68 588.84 268.88 C 615.00 271.87 641.33 274.14 667.07 279.94 C 681.26 283.37 695.92 286.46 708.50 294.23 C 709.53 294.97 711.18 295.56 711.20 297.08 C 711.91 306.37 712.73 315.67 712.77 325.00 C 712.77 328.56 713.71 332.17 712.66 335.67 C 705.39 332.36 697.74 330.02 690.09 327.75 C 690.33 324.73 690.41 321.69 690.25 318.67 C 694.37 319.89 699.11 316.35 698.87 311.99 C 698.93 307.67 694.36 304.16 690.22 305.38 C 690.47 301.22 690.60 297.05 690.55 292.88 C 685.92 291.48 681.52 289.47 676.89 288.10 C 663.00 284.46 649.17 280.51 635.04 277.90 C 624.35 275.93 613.78 273.37 603.03 271.75 C 599.87 271.04 597.40 273.38 595.11 275.13 C 588.66 280.29 581.37 284.21 574.36 288.51 C 561.91 295.59 549.27 302.46 535.94 307.73 C 537.67 308.11 539.41 308.50 541.18 308.79 C 515.49 308.41 489.75 308.18 464.09 309.85 C 437.28 311.06 410.58 314.09 384.03 317.95 C 359.52 322.07 334.78 326.44 311.63 335.78 C 311.65 322.52 312.40 309.28 313.16 296.04 C 319.83 290.93 328.15 288.96 335.92 286.20 C 358.54 279.72 381.72 275.19 405.09 272.50 Z" />
<path fill="#fdfdfd" opacity="1.00" d=" M 419.02 347.35 C 443.24 344.77 467.64 344.31 491.99 344.16 C 527.54 344.20 563.17 343.66 598.62 346.72 C 584.37 350.90 570.67 356.74 556.57 361.42 C 551.28 363.43 545.56 364.59 540.89 367.93 C 544.46 368.89 548.12 368.29 551.72 367.81 C 566.12 366.78 580.57 367.49 595.00 367.53 C 600.01 367.29 604.93 368.45 609.62 370.12 C 609.51 370.54 609.28 371.38 609.16 371.80 C 603.85 369.19 597.81 369.14 592.03 368.91 C 566.67 368.60 541.32 369.11 515.96 368.92 C 487.63 369.05 459.30 368.72 430.97 368.99 C 422.55 368.98 413.93 371.84 407.97 377.95 C 401.40 384.43 398.33 393.88 398.57 402.99 C 398.74 408.70 398.29 414.46 399.12 420.13 C 392.39 424.27 384.32 425.47 377.04 428.39 C 374.56 423.27 372.36 417.80 372.35 412.02 C 372.38 400.36 372.32 388.70 372.45 377.03 C 372.56 371.15 373.85 365.13 377.24 360.23 C 381.28 354.16 387.93 350.01 395.05 348.64 C 402.97 347.26 411.04 348.03 419.02 347.35 Z" />
<path fill="#fdfdfd" opacity="1.00" d=" M 632.33 351.06 C 633.04 350.96 634.46 350.76 635.16 350.66 C 644.62 354.49 651.24 363.79 652.08 373.92 C 652.62 384.62 652.18 395.34 652.22 406.04 C 652.18 413.19 652.46 420.77 648.95 427.26 C 645.07 435.10 637.45 440.84 629.01 442.94 C 630.73 440.96 633.17 439.85 635.22 438.27 C 640.69 434.01 646.15 428.99 648.19 422.12 C 650.49 413.26 649.49 404.03 649.71 394.99 C 649.78 386.86 650.27 378.60 648.48 370.61 C 646.06 362.36 640.01 355.05 632.31 351.26 L 632.33 351.06 Z" />
<path fill="#fdfdfd" opacity="1.00" d=" M 312.48 361.61 C 319.74 357.06 328.06 354.55 336.29 352.41 C 336.59 361.64 336.23 370.87 336.31 380.10 C 336.72 381.83 335.21 382.43 333.93 382.97 C 326.35 385.04 318.75 387.25 311.70 390.75 C 311.67 382.14 311.41 373.53 311.45 364.92 C 311.58 363.82 311.19 362.18 312.48 361.61 Z" />
<path fill="#fdfdfd" opacity="1.00" d=" M 690.36 352.69 C 698.25 355.40 706.36 358.00 713.31 362.77 C 713.26 372.10 713.55 381.45 713.22 390.78 C 706.33 387.75 699.34 384.94 692.08 382.94 C 691.53 382.72 690.45 382.26 689.90 382.03 C 690.31 372.25 689.51 362.44 690.36 352.69 Z" />
<path fill="#fdfdfd" opacity="1.00" d=" M 251.46 356.68 C 261.12 352.16 272.60 360.77 272.45 371.03 C 273.04 379.88 264.57 387.55 255.90 386.70 C 250.67 385.79 245.45 382.80 243.46 377.64 C 239.46 370.07 243.62 359.80 251.46 356.68 Z" />
<path fill="#fdfdfd" opacity="1.00" d=" M 762.19 356.14 C 769.54 353.49 778.27 357.85 780.89 365.14 C 784.39 372.72 780.24 382.66 772.41 385.55 C 765.62 388.46 756.69 385.37 753.58 378.54 C 748.88 370.56 753.16 358.74 762.19 356.14 Z" />
<path fill="#fdfdfd" opacity="1.00" d=" M 436.18 395.20 C 444.38 394.18 452.71 395.12 460.96 394.79 C 466.38 395.03 472.36 393.58 477.25 396.63 C 481.62 399.69 484.38 405.59 482.67 410.86 C 481.67 415.17 478.12 418.74 473.84 419.83 C 471.57 420.27 469.25 420.11 466.96 420.08 C 457.32 419.69 447.68 420.32 438.04 420.12 C 430.26 419.77 424.87 410.76 427.51 403.61 C 428.84 399.64 432.11 396.33 436.18 395.20 Z" />
<path fill="#fdfdfd" opacity="1.00" d=" M 550.45 395.64 C 554.50 394.28 558.84 394.89 563.04 394.79 C 571.41 394.99 579.79 394.63 588.16 394.91 C 596.40 395.31 601.71 405.31 598.38 412.59 C 596.59 416.64 592.69 420.28 588.01 420.10 C 577.00 420.01 565.98 420.11 554.96 420.15 C 548.39 420.62 542.75 414.27 542.81 407.92 C 542.26 402.73 545.46 397.34 550.45 395.64 Z" />
<path fill="#fdfdfd" opacity="1.00" d=" M 317.06 413.40 C 323.26 410.82 329.53 408.11 336.19 406.95 C 336.58 420.71 334.79 434.57 336.83 448.26 C 339.05 458.45 343.36 469.01 352.13 475.27 C 352.67 475.07 353.74 474.67 354.28 474.48 C 353.57 475.18 352.87 475.90 352.16 476.62 C 339.73 471.44 329.07 461.89 322.95 449.85 C 317.70 439.94 315.29 428.86 313.04 417.96 C 311.95 415.23 315.31 414.44 317.06 413.40 Z" />
<path fill="#fdfdfd" opacity="1.00" d=" M 690.13 407.33 C 697.68 409.29 705.08 412.12 711.80 416.12 C 709.38 429.72 706.49 443.81 698.53 455.41 C 690.26 467.66 677.27 476.36 662.99 479.94 C 664.71 478.18 666.51 476.47 667.85 474.39 C 668.38 474.61 669.43 475.05 669.95 475.27 C 678.84 472.65 683.61 463.68 686.68 455.60 C 690.94 446.00 690.48 435.26 690.47 425.00 C 690.27 419.11 690.51 413.21 690.13 407.33 Z" />
<path fill="#fdfdfd" opacity="1.00" d=" M 246.21 468.15 C 253.22 466.02 261.41 469.85 264.23 476.63 C 267.83 483.46 265.45 492.89 258.59 496.68 C 251.15 501.50 239.84 498.24 236.44 489.96 C 232.19 481.70 237.27 470.52 246.21 468.15 Z" />
<path fill="#fdfdfd" opacity="1.00" d=" M 768.32 468.62 C 776.56 464.78 786.98 470.44 789.09 479.08 C 792.40 488.94 783.36 500.27 772.97 499.06 C 763.36 498.63 756.75 487.81 759.48 478.91 C 760.74 474.39 763.93 470.43 768.32 468.62 Z" />
<path fill="#fdfdfd" opacity="1.00" d=" M 280.27 525.12 C 279.15 520.31 282.89 514.97 287.85 514.54 C 293.70 513.39 299.36 519.23 298.41 525.01 C 298.39 527.82 296.11 529.70 294.18 531.41 C 290.97 533.01 287.61 532.24 284.26 531.87 L 285.48 530.70 C 282.65 530.95 280.91 527.50 280.27 525.12 Z" />
<path fill="#fdfdfd" opacity="1.00" d=" M 732.03 514.93 C 737.97 512.44 745.02 517.58 744.60 523.96 C 744.70 529.70 738.25 533.88 732.99 532.18 C 729.29 531.23 726.53 527.73 726.07 524.01 C 726.15 520.20 728.37 516.31 732.03 514.93 Z" />
<path fill="#fdfdfd" opacity="1.00" d=" M 653.29 570.21 C 655.99 561.77 659.50 553.55 665.17 546.64 C 674.33 555.53 685.91 561.37 697.81 565.68 C 697.89 575.74 697.86 585.81 697.70 595.88 C 681.52 590.16 665.64 582.33 653.29 570.21 Z" />
<path fill="#fdfdfd" opacity="1.00" d=" M 327.16 565.42 C 338.28 560.97 349.50 555.94 358.22 547.50 C 360.79 549.21 363.51 550.92 365.27 553.55 C 367.75 557.26 368.81 561.65 370.28 565.82 C 370.64 567.37 372.02 568.26 373.10 569.30 C 360.33 582.01 344.01 590.57 326.91 595.88 C 326.96 585.73 326.73 575.56 327.16 565.42 Z" />
<path fill="#fdfdfd" opacity="1.00" d=" M 287.49 578.77 C 293.62 576.55 299.62 573.91 305.95 572.26 C 306.18 582.56 306.25 592.87 306.16 603.18 C 299.94 605.37 293.55 607.08 287.41 609.49 C 287.67 599.25 286.49 588.95 287.49 578.77 Z" />
<path fill="#fdfdfd" opacity="1.00" d=" M 718.52 572.40 C 724.89 574.48 731.24 576.73 737.27 579.66 C 737.37 589.41 737.39 599.18 737.15 608.94 C 730.75 607.88 724.95 604.80 718.70 603.20 C 718.57 592.93 718.81 582.67 718.52 572.40 Z" />
<path fill="#fdfdfd" opacity="1.00" d=" M 584.27 586.01 C 584.97 599.14 586.63 612.23 589.45 625.08 C 592.82 640.93 597.68 656.69 597.73 673.02 C 598.44 693.97 590.76 713.83 587.10 734.18 C 584.67 733.30 583.36 730.93 581.55 729.27 C 577.85 725.12 573.12 721.26 571.04 716.11 C 575.58 701.59 578.10 686.33 577.45 671.09 C 576.56 651.27 569.62 632.47 566.87 612.94 C 566.06 607.88 565.19 602.82 565.03 597.70 C 571.13 596.60 576.55 593.40 582.23 591.08 C 584.33 590.41 583.83 587.72 584.27 586.01 Z" />
<path fill="#fdfdfd" opacity="1.00" d=" M 233.38 589.69 C 246.67 586.43 260.93 597.39 261.74 610.90 C 262.78 622.69 253.53 634.21 241.94 636.16 C 233.27 637.52 223.75 633.70 218.89 626.29 C 214.23 619.83 213.21 610.88 216.38 603.57 C 219.17 596.41 225.95 591.24 233.38 589.69 Z" />
<path fill="#fdfdfd" opacity="1.00" d=" M 780.54 589.82 C 787.72 587.91 795.68 589.87 801.34 594.63 C 805.09 597.92 807.71 602.36 809.13 607.12 C 811.23 614.86 808.89 623.57 803.27 629.29 C 796.55 636.45 785.02 638.19 776.33 633.77 C 765.81 628.62 760.23 614.93 764.90 604.03 C 767.29 597.01 773.39 591.64 780.54 589.82 M 786.26 599.29 C 784.54 599.78 782.87 600.43 781.35 601.37 C 773.02 606.18 772.25 620.24 780.52 625.49 C 789.76 632.80 805.46 622.57 802.69 611.18 C 801.56 603.75 793.69 597.70 786.26 599.29 Z" />
<path fill="#fdfdfd" opacity="1.00" d=" M 520.42 599.37 C 522.19 603.61 520.91 608.35 521.30 612.81 C 529.23 612.54 536.37 608.72 543.99 606.98 C 546.65 627.68 552.66 647.98 552.79 668.97 C 553.21 686.88 549.00 704.61 542.23 721.11 C 535.84 737.53 528.21 753.90 526.67 771.69 C 517.32 771.76 507.97 771.71 498.62 771.60 C 500.28 751.21 508.90 732.35 516.96 713.84 C 520.31 705.18 523.23 696.30 524.85 687.14 C 527.88 668.58 526.24 649.64 523.37 631.17 C 521.71 620.65 520.31 610.04 520.42 599.37 Z" />
<path fill="#fdfdfd" opacity="1.00" d=" M 639.10 601.79 C 641.75 601.37 644.34 600.62 646.85 599.64 C 654.68 607.72 663.21 615.13 672.46 621.54 C 686.74 631.29 702.91 637.62 718.76 644.27 C 732.90 650.18 746.23 659.51 754.04 672.98 C 759.90 682.86 762.03 694.87 760.23 706.20 C 757.80 720.92 746.88 733.83 732.84 738.79 C 723.02 741.86 712.39 741.03 702.61 738.25 C 690.88 734.58 680.76 727.25 671.21 719.74 C 643.83 696.29 623.98 664.45 613.63 630.03 C 611.81 622.72 609.74 615.43 608.86 607.94 C 610.78 607.02 612.70 606.08 614.63 605.15 C 630.40 641.84 655.43 674.53 686.60 699.48 C 693.79 705.30 701.83 710.68 711.09 712.33 C 721.11 713.91 731.81 706.23 732.40 695.87 C 732.71 685.42 725.41 676.44 716.80 671.36 C 705.02 664.53 692.99 658.05 681.96 650.01 C 665.53 637.11 650.16 622.14 639.69 603.90 C 639.48 603.19 639.29 602.49 639.10 601.79 Z" />
<path fill="#fdfdfd" opacity="1.00" d=" M 356.91 617.92 C 364.12 612.67 370.90 606.82 377.14 600.45 C 379.89 601.36 382.62 602.53 384.64 604.69 C 372.85 623.33 357.30 639.54 339.44 652.47 C 329.18 659.95 317.64 665.36 306.81 671.93 C 300.80 675.77 295.41 681.32 293.57 688.40 C 291.54 694.42 292.63 701.45 296.67 706.40 C 301.91 711.93 310.44 713.92 317.62 711.41 C 326.68 708.49 334.47 702.71 341.70 696.67 C 358.20 682.63 372.60 666.31 385.60 649.03 C 392.52 648.39 399.07 645.90 405.80 644.33 C 398.40 663.66 388.31 682.07 375.09 698.05 C 365.83 709.44 355.49 720.17 343.11 728.20 C 331.86 735.60 318.73 741.34 305.02 740.81 C 295.73 740.65 286.25 737.97 279.14 731.80 C 266.42 721.36 260.97 703.36 264.59 687.46 C 267.45 676.00 273.98 665.46 283.00 657.81 C 289.89 651.52 298.40 647.45 306.89 643.79 C 324.25 636.66 341.89 629.41 356.91 617.92 Z" />
<path fill="#fdfdfd" opacity="1.00" d=" M 473.44 602.07 C 476.39 607.05 478.77 612.90 484.31 615.58 C 488.08 618.16 493.27 617.02 496.96 619.26 C 498.42 626.02 498.11 633.04 499.53 639.82 C 500.95 651.18 501.53 662.64 501.44 674.09 C 500.82 682.37 499.35 690.61 496.65 698.48 C 491.27 714.63 481.63 728.82 473.97 743.89 C 468.42 754.79 464.96 766.78 464.47 779.03 C 463.29 797.74 461.80 817.43 451.86 833.85 C 446.56 842.21 439.16 850.41 429.08 852.59 C 420.94 854.74 411.62 852.23 405.86 846.03 C 401.87 841.43 399.52 835.19 400.40 829.08 C 401.63 821.83 406.56 815.25 413.26 812.17 C 419.86 809.04 427.96 809.94 434.12 813.70 C 437.73 797.39 437.58 780.63 439.52 764.12 C 441.96 744.12 454.26 727.56 463.04 710.01 C 470.94 695.29 474.44 678.58 475.01 661.99 C 475.18 642.00 473.18 622.06 473.44 602.07 Z" />
<path fill="#fdfdfd" opacity="1.00" d=" M 434.79 618.05 C 440.39 619.71 446.28 619.48 451.98 620.58 C 451.61 632.89 452.32 645.25 450.80 657.50 C 449.08 676.41 443.25 694.80 435.02 711.86 C 426.49 728.29 415.91 744.51 400.29 755.01 C 386.41 764.47 367.98 763.92 352.78 758.15 C 369.53 751.12 383.62 738.93 395.01 724.95 C 407.57 709.01 417.08 690.75 423.55 671.53 C 429.55 654.25 432.34 636.11 434.79 618.05 Z" />
<path fill="#fdfdfd" opacity="1.00" d=" M 563.78 740.99 C 570.55 747.55 577.00 754.55 584.30 760.53 C 584.92 778.69 586.37 796.99 591.04 814.62 C 594.84 811.41 600.18 810.15 605.07 810.84 C 612.11 812.24 618.53 817.01 621.75 823.46 C 624.05 828.56 624.71 834.64 622.48 839.90 C 619.46 848.16 610.66 853.60 601.96 853.30 C 593.83 853.24 586.59 848.57 581.15 842.86 C 570.20 831.21 564.74 815.63 562.20 800.09 C 559.38 780.52 559.06 760.30 563.78 740.99 M 605.08 820.17 C 598.59 820.75 592.53 826.26 592.13 832.93 C 591.36 838.78 596.08 843.77 601.10 845.93 C 610.50 848.96 620.82 838.47 617.87 829.09 C 616.52 823.63 610.68 819.43 605.08 820.17 Z" />
<path fill="#fdfdfd" opacity="1.00" d=" M 321.52 784.67 C 328.09 782.04 336.36 784.98 339.50 791.39 C 343.53 798.17 340.82 807.95 333.89 811.71 C 329.46 814.03 323.92 813.94 319.55 811.53 C 312.80 807.52 309.72 797.78 313.92 790.93 C 315.57 787.98 318.40 785.86 321.52 784.67 Z" />
<path fill="#fdfdfd" opacity="1.00" d=" M 694.12 784.13 C 703.96 781.36 713.94 791.14 711.96 801.00 C 710.85 809.62 701.15 815.35 693.03 812.61 C 684.58 810.54 680.38 799.67 684.15 792.12 C 685.92 788.03 689.77 785.03 694.12 784.13 Z" />
<path fill="#fdfdfd" opacity="1.00" d=" M 379.68 788.82 C 385.82 788.58 389.80 796.91 385.54 801.44 C 382.19 805.88 374.67 804.24 372.87 799.16 C 370.50 794.48 374.65 788.84 379.68 788.82 Z" />
<path fill="#fdfdfd" opacity="1.00" d=" M 641.50 789.68 C 646.20 787.50 652.16 790.68 652.45 795.96 C 653.57 801.88 645.91 806.38 641.14 802.88 C 636.31 799.94 636.69 792.44 641.50 789.68 Z" />
<path fill="#fdfdfd" opacity="1.00" d=" M 497.73 793.48 C 507.40 793.37 517.07 793.68 526.75 793.46 C 526.71 797.94 526.73 802.42 526.65 806.91 C 517.15 807.34 507.62 807.05 498.10 807.17 C 497.74 802.61 498.11 798.03 497.73 793.48 Z" />
<path fill="#fdfdfd" opacity="1.00" d=" M 500.02 832.87 C 511.43 826.96 526.15 830.35 534.47 839.94 C 530.88 849.50 522.20 855.54 514.12 861.09 C 510.76 863.35 507.16 866.59 507.26 871.00 C 506.99 875.82 511.35 879.78 515.90 880.37 C 522.10 881.81 527.43 877.01 531.65 873.13 C 531.12 874.47 530.60 875.80 530.15 877.19 C 530.75 877.51 531.96 878.16 532.57 878.48 C 525.76 885.39 515.40 888.44 505.97 885.96 C 491.37 882.89 480.82 866.54 484.87 852.00 C 486.78 843.80 492.17 836.27 500.02 832.87 Z" />
</g>
<g id="#c1c1c1ff">
<path fill="#c1c1c1" opacity="1.00" d=" M 532.19 201.79 C 543.94 190.68 559.38 184.27 574.91 180.46 C 575.12 180.86 575.53 181.65 575.74 182.05 C 578.58 197.17 579.86 212.61 580.13 228.00 C 580.65 235.25 577.00 243.23 570.06 246.16 C 565.67 248.21 560.70 247.93 555.98 247.97 C 537.88 247.89 519.77 247.89 501.67 247.63 C 508.01 244.69 514.79 242.92 521.16 240.04 C 534.46 233.86 547.99 226.16 555.99 213.40 C 557.38 213.46 558.78 213.53 560.18 213.62 C 560.14 209.69 560.15 205.77 560.14 201.85 C 550.82 201.77 541.51 201.86 532.19 201.79 Z" />
<path fill="#c1c1c1" opacity="1.00" d=" M 633.41 185.25 C 634.80 184.72 637.21 186.37 636.70 187.93 C 635.29 188.30 633.20 186.71 633.41 185.25 Z" />
<path fill="#c1c1c1" opacity="1.00" d=" M 639.48 190.48 C 643.36 192.77 646.21 196.30 649.29 199.51 C 659.48 210.84 670.02 221.99 678.05 235.03 C 685.19 245.25 690.87 256.44 695.23 268.11 C 693.36 267.70 691.51 267.25 689.66 266.84 L 689.51 266.51 C 684.86 254.69 679.14 243.32 672.57 232.46 C 664.96 220.96 656.51 210.04 647.65 199.49 C 645.08 196.34 641.83 193.81 639.48 190.48 Z" />
<path fill="#c1c1c1" opacity="1.00" d=" M 620.19 238.29 C 623.82 236.04 629.17 239.77 628.24 243.97 C 627.95 246.84 624.94 249.43 622.03 248.47 C 617.79 247.30 615.92 240.63 620.19 238.29 Z" />
<path fill="#c1c1c1" opacity="1.00" d=" M 595.11 275.13 C 597.40 273.38 599.87 271.04 603.03 271.75 C 613.78 273.37 624.35 275.93 635.04 277.90 C 649.17 280.51 663.00 284.46 676.89 288.10 C 681.52 289.47 685.92 291.48 690.55 292.88 C 690.60 297.05 690.47 301.22 690.22 305.38 C 688.48 307.32 686.67 309.43 686.30 312.10 C 686.27 314.89 688.35 316.92 690.25 318.67 C 690.41 321.69 690.33 324.73 690.09 327.75 C 653.43 318.99 616.02 313.52 578.43 310.83 C 566.03 309.87 553.59 309.54 541.18 308.79 C 539.41 308.50 537.67 308.11 535.94 307.73 C 549.27 302.46 561.91 295.59 574.36 288.51 C 581.37 284.21 588.66 280.29 595.11 275.13 M 646.37 298.53 C 642.42 300.26 641.60 305.68 643.98 308.99 C 646.15 311.05 649.89 312.15 652.55 310.41 C 654.52 308.53 655.55 305.70 655.33 303.00 C 654.71 299.08 649.87 296.83 646.37 298.53 M 667.29 302.32 C 663.35 305.40 663.96 312.16 668.32 314.53 C 673.62 317.00 679.48 309.63 676.13 304.98 C 674.53 301.90 670.30 300.57 667.29 302.32 Z" />
<path fill="#c1c1c1" opacity="1.00" d=" M 598.62 346.72 L 598.96 346.59 C 606.89 347.93 614.95 347.55 622.96 347.76 C 627.14 347.97 631.43 348.64 635.16 350.66 C 634.46 350.76 633.04 350.96 632.33 351.06 L 632.31 351.26 C 640.01 355.05 646.06 362.36 648.48 370.61 C 650.27 378.60 649.78 386.86 649.71 394.99 C 649.49 404.03 650.49 413.26 648.19 422.12 C 646.15 428.99 640.69 434.01 635.22 438.27 C 633.17 439.85 630.73 440.96 629.01 442.94 C 624.51 444.45 619.67 444.03 615.00 444.21 C 562.00 444.45 508.99 444.23 455.98 444.28 C 443.33 444.26 430.67 444.57 418.02 444.25 C 410.35 444.03 402.48 444.79 395.01 442.62 C 387.53 440.31 381.00 435.15 377.04 428.39 C 384.32 425.47 392.39 424.27 399.12 420.13 C 400.80 429.59 407.33 437.97 416.03 442.00 C 421.15 443.93 426.68 442.63 431.99 442.93 C 479.32 442.90 526.67 442.81 574.00 442.95 C 584.34 442.91 594.70 443.40 605.03 442.82 C 612.71 442.65 618.58 436.60 622.50 430.57 C 627.97 421.72 626.73 410.94 626.86 401.02 C 627.10 393.53 624.85 385.80 619.82 380.14 C 616.95 376.58 613.11 374.02 609.16 371.80 C 609.28 371.38 609.51 370.54 609.62 370.12 C 604.93 368.45 600.01 367.29 595.00 367.53 C 580.57 367.49 566.12 366.78 551.72 367.81 C 548.12 368.29 544.46 368.89 540.89 367.93 C 545.56 364.59 551.28 363.43 556.57 361.42 C 570.67 356.74 584.37 350.90 598.62 346.72 Z" />
<path fill="#c1c1c1" opacity="1.00" d=" M 673.39 348.04 C 679.10 349.36 684.74 350.99 690.36 352.69 C 689.51 362.44 690.31 372.25 689.90 382.03 C 690.45 382.26 691.53 382.72 692.08 382.94 C 685.82 382.01 679.68 380.39 673.42 379.47 C 673.61 368.99 673.39 358.51 673.39 348.04 Z" />
<path fill="#c1c1c1" opacity="1.00" d=" M 336.28 352.10 C 341.30 350.62 346.37 349.34 351.51 348.33 C 351.49 358.61 351.52 368.89 351.29 379.17 C 345.50 380.40 339.65 381.43 333.93 382.97 C 335.21 382.43 336.72 381.83 336.31 380.10 C 336.23 370.87 336.59 361.64 336.29 352.41 L 336.28 352.10 Z" />
<path fill="#c1c1c1" opacity="1.00" d=" M 336.19 406.51 C 341.24 405.33 346.34 404.35 351.49 403.68 C 351.61 420.46 351.07 437.23 351.09 454.01 C 351.02 463.62 354.98 472.80 361.20 480.02 C 358.08 479.17 355.04 478.08 352.16 476.62 C 352.87 475.90 353.57 475.18 354.28 474.48 C 353.74 474.67 352.67 475.07 352.13 475.27 C 343.36 469.01 339.05 458.45 336.83 448.26 C 334.79 434.57 336.58 420.71 336.19 406.95 L 336.19 406.51 Z" />
<path fill="#c1c1c1" opacity="1.00" d=" M 673.31 403.55 C 678.98 404.22 684.50 405.72 690.10 406.81 L 690.13 407.33 C 690.51 413.21 690.27 419.11 690.47 425.00 C 690.48 435.26 690.94 446.00 686.68 455.60 C 683.61 463.68 678.84 472.65 669.95 475.27 C 669.43 475.05 668.38 474.61 667.85 474.39 C 671.42 468.20 673.59 461.23 673.78 454.06 C 674.24 437.22 673.13 420.38 673.31 403.55 Z" />
<path fill="#c1c1c1" opacity="1.00" d=" M 379.18 466.50 C 386.59 468.90 394.18 470.76 401.86 472.03 C 402.14 484.69 402.31 497.37 401.73 510.02 C 400.50 532.59 389.52 553.98 373.10 569.30 C 372.02 568.26 370.64 567.37 370.28 565.82 C 368.81 561.65 367.75 557.26 365.27 553.55 C 363.51 550.92 360.79 549.21 358.22 547.50 C 370.90 535.51 378.34 518.38 379.11 501.00 C 379.61 489.51 379.54 477.99 379.18 466.50 Z" />
<path fill="#c1c1c1" opacity="1.00" d=" M 622.82 471.81 C 630.44 470.53 637.94 468.62 645.30 466.31 C 645.16 477.86 645.13 489.43 645.58 500.98 C 646.27 517.93 653.53 534.36 665.17 546.64 C 659.50 553.55 655.99 561.77 653.29 570.21 C 648.91 566.72 645.39 562.37 641.70 558.21 C 629.17 543.15 622.57 523.46 622.83 503.93 C 622.79 493.22 622.85 482.51 622.82 471.81 Z" />
<path fill="#c1c1c1" opacity="1.00" d=" M 521.84 473.29 C 528.99 474.03 536.05 475.61 543.25 475.84 C 543.36 476.87 543.47 477.90 543.59 478.95 C 538.91 478.58 534.54 476.71 529.95 475.88 C 527.21 475.17 524.19 475.01 521.84 473.29 Z" />
<path fill="#c1c1c1" opacity="1.00" d=" M 424.07 475.99 C 435.99 478.92 444.88 489.19 448.44 500.62 C 442.42 500.69 436.44 499.86 430.42 499.99 C 428.93 491.84 427.17 483.69 424.07 475.99 Z" />
<path fill="#c1c1c1" opacity="1.00" d=" M 587.27 480.25 C 591.45 477.79 596.22 476.70 600.85 475.42 C 597.49 483.20 595.58 491.49 594.19 499.82 C 586.09 500.16 577.97 500.16 569.88 500.74 C 573.26 492.29 578.93 484.35 587.27 480.25 Z" />
<path fill="#c1c1c1" opacity="1.00" d=" M 473.39 477.16 C 480.96 479.51 488.41 482.25 495.88 484.90 C 496.33 514.58 495.92 544.27 496.07 573.96 C 496.10 586.61 495.78 599.29 496.76 611.92 C 499.21 632.54 502.91 653.24 501.44 674.09 C 501.53 662.64 500.95 651.18 499.53 639.82 C 498.11 633.04 498.42 626.02 496.96 619.26 C 493.27 617.02 488.08 618.16 484.31 615.58 C 478.77 612.90 476.39 607.05 473.44 602.07 C 473.59 560.51 473.49 518.78 473.39 477.16 Z" />
<path fill="#c1c1c1" opacity="1.00" d=" M 519.92 494.55 C 527.66 496.23 535.20 498.67 542.88 500.59 C 543.07 522.40 542.74 544.22 542.89 566.03 C 543.11 579.68 542.17 593.41 543.99 606.98 C 536.37 608.72 529.23 612.54 521.30 612.81 C 520.91 608.35 522.19 603.61 520.42 599.37 C 519.93 597.96 520.12 596.45 520.08 595.00 C 520.07 561.52 520.16 528.04 519.92 494.55 Z" />
<path fill="#c1c1c1" opacity="1.00" d=" M 433.61 520.64 C 439.73 520.91 445.79 521.78 451.85 522.58 C 452.08 555.24 451.99 587.91 451.98 620.58 C 446.28 619.48 440.39 619.71 434.79 618.05 C 436.39 600.09 436.08 582.02 435.87 564.01 C 435.60 549.53 435.07 535.05 433.61 520.64 Z" />
<path fill="#c1c1c1" opacity="1.00" d=" M 564.87 522.11 C 572.69 521.26 580.58 520.97 588.45 521.29 C 585.12 542.68 583.84 564.38 584.27 586.01 C 583.83 587.72 584.33 590.41 582.23 591.08 C 576.55 593.40 571.13 596.60 565.03 597.70 C 563.75 572.52 564.37 547.30 564.87 522.11 Z" />
<path fill="#c1c1c1" opacity="1.00" d=" M 625.15 574.97 C 626.37 574.01 627.39 574.55 627.45 576.18 C 632.54 585.02 639.93 592.23 646.85 599.64 C 644.34 600.62 641.75 601.37 639.10 601.79 C 639.29 602.49 639.48 603.19 639.69 603.90 C 635.62 597.50 632.46 590.57 629.45 583.62 C 628.37 580.56 627.25 577.49 625.15 574.97 Z" />
<path fill="#c1c1c1" opacity="1.00" d=" M 377.14 600.45 C 384.47 593.14 391.23 585.22 396.99 576.60 C 394.35 586.52 389.28 595.59 384.64 604.69 C 382.62 602.53 379.89 601.36 377.14 600.45 Z" />
<path fill="#c1c1c1" opacity="1.00" d=" M 606.61 577.91 C 608.28 587.26 611.45 596.22 614.63 605.15 C 612.70 606.08 610.78 607.02 608.86 607.94 C 607.13 598.02 606.70 587.95 606.61 577.91 Z" />
<path fill="#c1c1c1" opacity="1.00" d=" M 412.55 595.97 C 414.39 590.70 415.61 585.26 416.65 579.78 C 417.10 601.75 413.19 623.68 405.80 644.33 C 399.07 645.90 392.52 648.39 385.60 649.03 C 396.42 632.40 407.12 615.24 412.55 595.97 Z" />
<path fill="#c1c1c1" opacity="1.00" d=" M 786.26 599.29 C 793.69 597.70 801.56 603.75 802.69 611.18 C 805.46 622.57 789.76 632.80 780.52 625.49 C 772.25 620.24 773.02 606.18 781.35 601.37 C 782.87 600.43 784.54 599.78 786.26 599.29 Z" />
<path fill="#c1c1c1" opacity="1.00" d=" M 605.08 820.17 C 610.68 819.43 616.52 823.63 617.87 829.09 C 620.82 838.47 610.50 848.96 601.10 845.93 C 596.08 843.77 591.36 838.78 592.13 832.93 C 592.53 826.26 598.59 820.75 605.08 820.17 Z" />
<path fill="#c1c1c1" opacity="1.00" d=" M 534.47 839.94 C 540.48 847.24 542.88 857.72 539.85 866.78 C 538.34 871.15 536.00 875.33 532.57 878.48 C 531.96 878.16 530.75 877.51 530.15 877.19 C 530.60 875.80 531.12 874.47 531.65 873.13 C 527.43 877.01 522.10 881.81 515.90 880.37 C 511.35 879.78 506.99 875.82 507.26 871.00 C 507.16 866.59 510.76 863.35 514.12 861.09 C 522.20 855.54 530.88 849.50 534.47 839.94 Z" />
</g>
</svg>
